<svg xmlns="http://www.w3.org/2000/svg" width="600" height="150" viewBox="0 0 600 150">
<g>
<path d="M 160.50 132.40 C148.30,128.56 145.34,117.72 154.77,111.37 C156.57,110.16 159.84,108.87 162.03,108.50 C166.90,107.67 166.44,106.49 160.90,105.60 C154.57,104.59 153.00,103.40 153.00,99.64 C153.00,95.41 156.05,92.51 162.25,90.85 C167.81,89.37 168.41,87.49 163.60,86.59 C159.46,85.81 155.46,82.80 153.48,78.96 C150.40,73.01 152.50,62.39 157.64,57.87 C158.66,56.97 161.52,55.17 164.00,53.87 C168.28,51.62 169.61,51.48 190.75,51.18 L 213.00 50.86 L 213.00 57.37 C213.00,60.95 212.66,64.08 212.25,64.32 C211.84,64.57 207.55,64.23 202.73,63.57 C197.90,62.92 193.74,62.59 193.48,62.86 C192.27,64.07 193.35,64.85 197.75,65.95 C204.34,67.60 207.00,70.33 207.00,75.42 C206.99,81.05 204.11,85.28 198.35,88.10 C194.34,90.05 191.56,90.53 182.31,90.84 C172.84,91.15 170.85,91.51 169.38,93.13 C168.33,94.29 168.01,95.40 168.57,95.93 C169.08,96.42 176.70,96.98 185.50,97.18 C198.98,97.47 202.13,97.84 205.49,99.52 C211.01,102.27 214.00,107.06 214.00,113.18 C214.00,122.10 210.53,127.08 201.49,131.14 C197.14,133.09 194.51,133.42 181.00,133.68 C169.02,133.91 164.36,133.62 160.50,132.40 ZM 196.11 116.34 C198.95,113.49 198.03,109.34 194.22,107.89 C192.72,107.31 186.93,106.99 181.35,107.17 C170.28,107.53 167.00,109.00 167.00,113.60 C167.00,118.02 170.38,119.14 182.72,118.81 C192.66,118.54 194.20,118.25 196.11,116.34 ZM 187.75 78.48 C192.07,73.51 189.76,65.06 183.51,63.00 C180.54,62.02 179.40,62.13 176.24,63.67 C171.16,66.15 169.39,70.01 170.94,75.21 C171.81,78.11 172.97,79.53 175.31,80.58 C179.69,82.55 184.99,81.65 187.75,78.48 ZM 401.72 132.91 C395.90,131.54 392.18,129.26 390.52,126.03 C386.40,118.08 391.14,110.37 401.25,108.58 C405.03,107.90 406.50,106.00 403.25,105.99 C399.42,105.98 393.96,103.80 392.93,101.87 C390.65,97.60 394.53,92.83 402.13,90.58 C407.16,89.08 407.21,87.90 402.29,86.26 C390.09,82.20 387.66,67.82 397.56,58.30 C404.19,51.93 408.57,51.00 432.09,51.00 L 451.82 51.00 L 452.21 57.25 C452.43,60.69 452.35,63.79 452.05,64.15 C451.75,64.50 447.54,64.25 442.69,63.58 C437.37,62.85 433.66,62.74 433.32,63.30 C432.59,64.48 434.90,65.96 437.50,65.99 C440.71,66.02 445.89,69.72 446.58,72.48 C447.60,76.52 446.20,81.44 443.24,84.21 C437.85,89.25 434.25,90.39 422.31,90.81 C412.86,91.15 410.85,91.51 409.38,93.13 C408.33,94.29 408.01,95.39 408.57,95.92 C409.08,96.40 416.70,96.98 425.50,97.21 C439.38,97.57 442.04,97.91 445.60,99.76 C451.49,102.82 453.45,106.26 453.43,113.50 C453.40,123.89 448.54,129.35 436.54,132.46 C429.95,134.16 408.24,134.44 401.72,132.91 ZM 435.35 117.13 C436.29,116.34 437.00,114.30 437.00,112.35 C437.00,109.62 436.49,108.76 434.43,107.98 C430.45,106.46 414.47,106.78 410.47,108.45 C407.43,109.72 407.00,110.34 407.00,113.48 C407.00,116.25 407.51,117.28 409.25,118.02 C412.70,119.49 433.35,118.78 435.35,117.13 ZM 424.48 81.01 C429.88,78.96 431.19,69.32 426.64,65.21 C422.02,61.04 414.10,61.97 411.50,67.00 C406.71,76.27 414.58,84.77 424.48,81.01 ZM 61.13 113.98 C47.68,111.17 38.67,101.26 35.83,86.15 C34.32,78.12 35.37,63.71 37.97,56.80 C40.74,49.40 47.61,41.80 54.43,38.58 C69.04,31.67 89.38,33.61 99.34,42.86 C103.09,46.34 106.19,52.52 105.81,55.72 C105.53,58.01 104.63,58.55 97.55,60.58 C89.12,63.01 88.00,62.95 88.00,60.08 C88.00,57.62 84.45,53.28 80.96,51.48 C77.29,49.58 68.72,49.57 65.07,51.46 C60.99,53.57 57.23,58.44 55.92,63.30 C54.31,69.28 55.17,85.67 57.32,89.72 C59.93,94.66 63.88,97.77 69.15,99.04 C77.81,101.11 85.18,98.42 88.52,91.96 C91.26,86.67 90.69,86.00 83.45,86.00 L 76.91 86.00 L 77.20 79.25 L 77.50 72.50 L 92.93 72.50 L 108.36 72.50 L 108.28 92.50 L 108.19 112.50 L 102.13 112.80 L 96.08 113.09 L 95.79 103.88 C95.48,93.97 94.02,91.39 92.07,97.29 C89.93,103.78 85.43,109.62 80.86,111.82 C75.69,114.32 67.21,115.25 61.13,113.98 ZM 244.00 114.02 C237.37,113.16 233.29,110.29 230.48,104.51 C228.26,99.92 228.03,98.11 227.78,83.00 L 227.50 66.50 L 223.25 66.19 L 219.00 65.89 L 219.00 58.94 L 219.00 52.00 L 223.25 51.99 C230.16,51.96 232.30,50.30 233.87,43.73 L 235.23 38.00 L 240.62 38.00 L 246.00 38.00 L 246.00 44.50 L 246.00 51.00 L 252.38 51.00 C256.35,51.00 259.08,51.47 259.63,52.25 C260.11,52.94 260.50,56.42 260.50,60.00 L 260.50 66.50 L 253.25 66.79 L 246.00 67.09 L 246.00 80.52 C246.00,93.79 246.03,93.97 248.53,95.61 C250.42,96.85 252.32,97.12 256.03,96.68 L 261.00 96.09 L 261.00 104.53 C261.00,112.47 260.87,112.99 258.75,113.42 C254.17,114.35 248.37,114.59 244.00,114.02 ZM 291.92 114.03 C285.24,112.84 279.80,109.71 275.10,104.38 C269.47,97.98 267.65,91.42 268.20,79.61 C268.86,65.70 273.66,57.80 284.50,52.80 C288.71,50.86 291.15,50.50 300.00,50.50 C309.49,50.50 311.00,50.76 315.64,53.21 C321.90,56.51 327.36,62.68 329.45,68.79 C331.23,74.03 331.53,88.56 329.97,94.18 C329.41,96.20 327.50,100.02 325.72,102.67 C319.79,111.53 305.25,116.42 291.92,114.03 ZM 305.91 99.54 C310.15,97.35 312.00,92.46 312.00,83.41 C312.00,77.62 311.48,74.55 309.96,71.41 C307.82,67.00 303.31,64.00 298.85,64.00 C295.16,64.01 290.02,67.71 288.44,71.49 C286.36,76.47 286.60,88.53 288.89,93.56 C291.84,100.06 299.62,102.80 305.91,99.54 ZM 484.00 114.04 C476.10,112.58 471.15,109.96 466.49,104.77 C460.50,98.12 458.56,91.53 459.26,80.29 C460.50,60.36 473.17,49.06 492.96,50.20 C508.96,51.13 517.76,60.68 518.80,78.25 L 519.26 86.00 L 498.60 86.00 C475.45,86.00 475.38,86.03 478.65,92.71 C483.48,102.55 498.26,104.03 501.98,95.05 C502.67,93.37 503.75,92.02 504.37,92.04 C506.62,92.10 518.12,94.79 518.71,95.38 C519.05,95.71 518.81,97.69 518.19,99.76 C516.74,104.61 510.70,110.49 505.18,112.44 C499.70,114.37 489.81,115.12 484.00,114.04 ZM 501.56 73.40 C498.96,63.04 486.30,60.98 480.27,69.93 C476.32,75.79 476.66,76.00 490.11,76.00 L 502.22 76.00 L 501.56 73.40 ZM 548.87 113.97 C542.92,112.98 540.65,111.73 537.60,107.72 C534.01,103.01 533.05,97.37 533.02,80.75 L 533.00 66.00 L 528.36 66.00 L 523.73 66.00 L 524.36 61.36 C524.71,58.81 525.00,55.66 525.00,54.36 C525.00,52.35 525.50,52.00 528.35,52.00 C534.55,52.00 537.85,50.18 538.97,46.16 C539.53,44.15 539.99,41.49 539.99,40.25 C540.00,38.19 540.46,38.00 545.50,38.00 L 551.00 38.00 L 551.00 44.46 L 551.00 50.91 L 558.25 51.21 L 565.50 51.50 L 565.79 59.25 L 566.08 67.00 L 558.54 67.00 L 551.00 67.00 L 551.00 80.00 C551.00,91.85 551.19,93.19 553.09,95.09 C554.81,96.81 556.15,97.12 560.84,96.84 C564.92,96.59 566.47,96.85 566.40,97.75 C566.34,98.44 566.23,102.14 566.15,105.98 C566.01,112.36 565.81,113.00 563.75,113.42 C558.47,114.49 553.20,114.68 548.87,113.97 ZM 121.24 82.25 L 121.50 51.50 L 130.50 51.50 L 139.50 51.50 L 139.76 82.25 L 140.03 113.00 L 130.50 113.00 L 120.97 113.00 L 121.24 82.25 ZM 342.24 82.25 L 342.50 51.50 L 349.41 51.20 C354.26,50.99 356.57,51.29 357.15,52.20 C357.60,52.92 357.98,57.36 357.98,62.08 C357.99,66.80 358.32,70.98 358.71,71.37 C359.09,71.76 360.23,69.07 361.24,65.39 C363.55,56.98 365.90,53.66 371.01,51.61 C375.45,49.84 383.54,49.45 384.48,50.97 C384.81,51.50 384.77,55.98 384.40,60.94 L 383.72 69.94 L 378.11 69.41 C371.21,68.75 366.51,70.88 363.53,76.00 C361.75,79.06 361.46,81.59 361.17,96.25 L 360.83 113.00 L 351.40 113.00 L 341.97 113.00 L 342.24 82.25 ZM 122.75 41.02 C119.43,38.41 118.63,34.82 120.41,30.57 C121.56,27.80 122.68,26.89 126.01,26.00 C133.15,24.07 139.31,26.37 141.03,31.60 C142.29,35.40 141.07,39.14 137.84,41.40 C134.50,43.74 125.93,43.52 122.75,41.02 Z" fill="rgba(253,253,253,1)"/>
</g>
</svg>